<svg data-v-423bf9ae="" xmlns="http://www.w3.org/2000/svg" viewBox="0 0 256.11849643243943 60" class="font"><!----><!----><!----><g data-v-423bf9ae="" id="813c0b75-8d42-45ab-98ce-fa6c01986618" fill="white" transform="matrix(6.1287033788129195,0,0,6.1287033788129195,3.1256367501780176,-11.889684428747124)"><path d="M3.33 1.96L3.33 1.96Q4.96 1.96 5.51 3.01L5.51 3.01Q5.89 3.80 5.89 4.56L5.89 4.56L5.88 4.56Q4.76 4.66 4.35 4.66L4.35 4.66Q4.35 4.12 4.02 3.75L4.02 3.75Q3.71 3.57 3.44 3.57L3.44 3.57L3.17 3.57Q2.47 3.57 2.32 4.11L2.32 4.11Q2.28 4.27 2.28 4.35L2.28 4.35L2.28 4.50Q2.28 5.26 3.09 5.61L3.09 5.61Q3.16 5.67 4.21 6.12L4.21 6.12Q4.77 6.38 5.25 6.76L5.25 6.76L5.25 6.77L3.53 6.77L3.53 6.97L5.80 6.97L5.80 7.24L6.08 7.24L6.08 10.21L5.52 10.21L5.52 11.73L1.18 11.73L1.18 10.21L0.15 10.21L0.15 9.18L0.73 9.18L0.73 8.83L0.15 8.83L0.15 8.59L2.14 8.59L2.14 10.21L4.18 10.21L4.18 7.77L2.65 7.77L2.65 6.97L0.76 6.97L0.76 6.77L1.67 6.77L1.67 6.76Q0.47 5.96 0.47 4.50L0.47 4.50L0.47 4.37Q0.47 3.14 1.22 2.51L1.22 2.51Q1.91 1.96 3.33 1.96ZM5.80 6.97L5.80 6.77L6.49 6.77L6.49 6.97L5.80 6.97ZM-0.51 9.18L-0.51 8.83L0.15 8.83L0.15 9.18L-0.51 9.18ZM7.24 6.80L7.24 2.00L12.03 2.00L12.03 3.60Q12.03 3.63 12.00 3.63L12.00 3.63L9.15 3.63L9.15 5.74L11.70 5.74L11.70 5.76Q11.70 5.84 11.68 6.79L11.68 6.79Q11.66 6.79 11.66 6.80L11.66 6.80L11.77 6.80L11.77 7.29L9.56 7.29L9.56 9.29L8.97 9.29L8.97 9.49L9.56 9.49L9.56 10.10L12.07 10.10L12.07 10.32L11.87 10.32L11.87 11.52L8.87 11.52L8.87 11.73L7.45 11.73L7.45 8.24L7.24 8.24L7.24 7.01L5.68 7.01L5.68 6.80L7.24 6.80ZM8.05 6.80L7.25 6.80L7.25 7.01L8.05 7.01L8.05 6.80ZM13.45 6.80L13.45 2.00L18.25 2.00L18.25 3.60Q18.25 3.63 18.21 3.63L18.21 3.63L15.37 3.63L15.37 5.74L17.92 5.74L17.92 5.76Q17.92 5.84 17.89 6.79L17.89 6.79Q17.87 6.79 17.87 6.80L17.87 6.80L17.99 6.80L17.99 7.29L15.78 7.29L15.78 9.29L15.18 9.29L15.18 9.49L15.78 9.49L15.78 10.10L18.28 10.10L18.28 10.32L18.08 10.32L18.08 11.52L15.09 11.52L15.09 11.73L13.67 11.73L13.67 8.24L13.45 8.24L13.45 7.01L11.89 7.01L11.89 6.80L13.45 6.80ZM14.27 6.80L13.47 6.80L13.47 7.01L14.27 7.01L14.27 6.80ZM19.17 9.38L19.17 1.98L21.34 1.98Q21.70 3.29 22.82 7.23L22.82 7.23L23.68 7.23Q23.71 7.23 23.96 6.30L23.96 6.30Q24.50 4.44 25.18 1.98L25.18 1.98L27.19 1.98L27.19 8.31L27.30 8.31L27.30 9.46L26.69 9.46L26.69 9.67L27.30 9.67L27.30 11.73L25.59 11.73L25.59 10.97L25.80 10.97L25.80 8.63L25.44 8.63L25.44 7.46L25.22 7.46L25.21 7.53L25.03 7.53L25.03 9.19L24.43 9.19L24.43 9.97L23.93 9.97L23.93 11.29L22.72 11.29L22.72 10.45L21.98 10.45L21.98 9.30L21.54 9.30L21.54 8.09L21.29 8.09Q21.27 8.00 21.12 7.46L21.12 7.46L22.85 7.46L22.80 7.23L21.08 7.23L21.12 7.46L20.90 7.46L20.90 8.98L21.01 8.98L21.01 10.64L20.58 10.64L20.58 10.94L21.01 10.94L21.01 11.38L19.46 11.38L19.46 9.38L19.17 9.38ZM20.90 6.54L20.88 6.54L20.88 6.66Q20.88 6.81 20.90 7.23L20.90 7.23L21.06 7.23Q20.90 6.58 20.90 6.54L20.90 6.54ZM25.46 6.56L25.44 6.56L25.29 7.23L25.44 7.23Q25.46 6.82 25.46 6.62L25.46 6.62L25.46 6.56ZM20.88 7.23L20.34 7.23L20.34 7.46L20.88 7.46L20.88 7.23ZM25.27 7.23L23.71 7.23L23.66 7.46L25.21 7.46Q25.27 7.29 25.27 7.23L25.27 7.23ZM26.64 7.23L25.46 7.23L25.46 7.46L26.64 7.46L26.64 7.23ZM23.63 7.46L22.89 7.46Q23.00 7.99 23.04 7.99L23.04 7.99L23.24 7.99L23.24 8.87L23.54 8.87L23.54 7.51L23.63 7.51L23.63 7.46ZM27.30 9.67L27.30 9.46L28.29 9.46L28.29 9.67L27.30 9.67ZM19.02 11.61L19.02 11.46L20.76 11.46L20.76 11.61L19.02 11.61ZM29.48 7.57L31.17 1.96L32.81 1.96Q32.85 2.10 34.41 7.29L34.41 7.29L34.71 7.29L34.71 10.51L34.04 10.51L34.04 10.76L34.71 10.76L34.71 11.45L32.89 11.45L32.89 9.47L30.67 9.47L30.67 10.32L29.76 10.32L29.76 11.73L28.12 11.73L28.12 11.63L28.25 11.63L28.25 10.32L28.92 10.32L28.92 7.57L29.48 7.57ZM31.97 4.71L31.94 4.71L31.94 4.72Q31.73 5.89 31.12 8.40L31.12 8.40L32.65 8.40L32.65 7.29L32.52 7.29Q31.97 4.92 31.97 4.71L31.97 4.71ZM27.64 7.57L27.64 7.28L28.92 7.28L28.92 7.57L27.64 7.57ZM32.89 11.73L32.89 11.57L35.09 11.57L35.09 11.73L32.89 11.73ZM35.01 1.99L35.01 1.94L36.98 1.94L36.98 2.02Q36.98 2.95 37.32 3.44L37.32 3.44Q38.21 5.01 38.21 5.13L38.21 5.13L38.23 5.13Q38.23 5.06 39.29 3.06L39.29 3.06Q39.42 2.55 39.42 2.15L39.42 2.15L39.42 1.94L41.28 1.94L41.28 1.96Q41.28 3.34 40.78 4.03L40.78 4.03Q40.67 4.24 39.20 6.51L39.20 6.51Q39.51 7.01 39.51 7.04L39.51 7.04L38.90 7.04L38.90 7.32L39.68 7.32Q39.76 7.40 40.74 9.02L40.74 9.02L40.74 10.25L41.06 10.25L41.06 11.01L40.34 11.01L40.34 11.24L41.06 11.24L41.06 11.61L38.86 11.61L38.86 9.02L38.61 9.02Q38.15 8.04 38.15 7.98L38.15 7.98L38.13 7.98Q38.00 8.32 37.65 9.02L37.65 9.02L37.65 10.36L36.98 10.36L36.98 11.72Q36.48 11.73 36.24 11.73L36.24 11.73L34.97 11.73L34.81 11.72L34.81 10.12L35.25 10.12L35.25 8.72L36.39 8.72L36.39 8.47L35.86 8.47L35.86 7.52L36.57 7.52Q36.62 7.46 37.16 6.60L37.16 6.60L37.16 6.56Q35.56 4.17 35.42 3.93L35.42 3.93Q35.01 3.29 35.01 1.99L35.01 1.99Z"></path></g><!----><!----></svg>